<svg xmlns="http://www.w3.org/2000/svg" width="100%" viewBox="0 0 2033 342" height="100%"
            fill="var(--accentColor)">
    <g transform="matrix(0.1,0,0,-0.0999998,16.0642,320.837)">
        <path d="M8985,2599C9081,2611 9299,2611 9390,2600C9554,2579 9718,2522 9767,2469L9789,2444L9762,2380L9735,2315L9732,1538L9729,760L9753,693C9766,655 9780,618 9784,609C9792,590 9751,546 9699,520C9584,461 9412,430 9196,430C8965,430 8808,458 8688,522C8594,572 8593,575 8626,667L8655,745L8655,2295L8632,2355C8619,2388 8607,2422 8604,2431C8596,2453 8642,2494 8708,2526C8771,2556 8887,2586 8985,2599ZM9255,2335C9221,2370 9162,2369 9129,2334L9105,2308L9102,1542C9100,1010 9102,764 9110,738C9117,713 9130,695 9150,685C9191,664 9214,666 9249,696L9280,722L9280,2311L9255,2335ZM16415,2599C16515,2611 16721,2612 16820,2599C16992,2578 17144,2525 17198,2468L17221,2443L17201,2398C17160,2301 17159,2277 17162,1485L17165,725L17192,660C17225,581 17220,569 17133,523C17002,452 16833,426 16572,433C16323,440 16193,469 16083,543C16028,580 16027,587 16061,675L16085,735L16085,2305L16056,2373L16028,2442L16055,2470C16108,2525 16257,2579 16415,2599ZM16685,2335C16655,2366 16603,2368 16566,2339L16540,2319L16540,1525C16540,1089 16543,724 16546,715C16554,696 16601,670 16629,670C16640,670 16662,682 16679,696L16710,722L16710,2311L16685,2335ZM17705,2599C17805,2611 18011,2612 18110,2599C18282,2578 18434,2525 18488,2468L18511,2443L18491,2398C18450,2301 18449,2277 18452,1485L18455,725L18482,660C18515,581 18510,569 18423,523C18292,452 18123,426 17862,433C17613,440 17483,469 17373,543C17318,580 17317,587 17351,675L17375,735L17375,2305L17346,2373L17318,2442L17345,2470C17398,2525 17547,2579 17705,2599ZM17975,2335C17945,2366 17893,2368 17856,2339L17830,2319L17830,1525C17830,1089 17833,724 17836,715C17844,696 17891,670 17919,670C17930,670 17952,682 17969,696L18000,722L18000,2311L17975,2335ZM9948,1658L9951,2580L10390,2580L10390,1665C10390,661 10387,706 10449,680C10485,665 10523,673 10550,700C10570,720 10570,737 10570,1650L10570,2580L11020,2580L11022,1653L11025,725L11052,661C11066,626 11076,592 11073,584C11066,564 10985,513 10925,491C10806,446 10717,435 10485,435C10308,435 10248,439 10180,453C10018,489 9877,565 9896,608C9949,729 9945,654 9948,1658ZM11185,2563C11178,2579 11194,2580 11443,2580L11708,2580L11722,2533C11730,2506 11801,2248 11880,1959L12025,1433L12028,2006L12030,2580L12469,2580L12472,1598C12475,521 12471,619 12525,478C12532,461 12516,460 12269,460L12005,460L11685,1622L11682,1041L11680,460L11241,460L11238,1453C11235,2439 11235,2445 11214,2495C11202,2523 11189,2553 11185,2563ZM13060,2573C13079,2575 13245,2578 13428,2578L13760,2580L13760,2189C13760,1880 13757,1799 13748,1803C13741,1805 13642,1829 13528,1856L13320,1905L13320,2093C13320,2279 13320,2281 13295,2305C13277,2324 13260,2330 13230,2330C13200,2330 13183,2324 13165,2305L13140,2281L13140,731L13164,703C13198,663 13262,664 13297,704L13321,732L13318,1114C13315,1521 13317,1495 13265,1623C13258,1639 13275,1640 13540,1640C13805,1640 13822,1639 13815,1623C13762,1485 13765,1512 13765,1115C13765,727 13764,739 13811,623C13823,593 13822,589 13800,565C13767,530 13685,493 13571,462C13480,437 13463,436 13230,436C12997,436 12980,437 12889,462C12776,493 12693,530 12660,564L12637,589L12664,669L12690,749L12690,2261L12636,2423L12671,2451C12733,2503 12902,2556 13060,2573ZM13980,2582L14358,2577C14690,2573 14746,2570 14825,2552C14965,2521 15089,2464 15104,2423C15108,2415 15098,2376 15083,2336C15057,2268 15056,2256 15055,2085C15055,1912 15056,1902 15083,1828C15114,1743 15112,1734 15063,1689C15021,1649 14957,1620 14867,1601L14785,1584L14820,1572C14867,1555 14989,1477 15022,1443L15049,1415L15052,1095C15056,765 15057,763 15101,653C15113,625 15112,619 15095,599C15070,572 14981,527 14910,506C14782,468 14685,460 14328,460L13980,460L13980,1100C13980,1605 13977,1740 13968,1740C13961,1740 13949,1744 13941,1749C13929,1757 13931,1765 13953,1794L13980,1829L13980,2582ZM14537,1605C14519,1612 14488,1620 14468,1624L14430,1631L14430,1197C14430,777 14431,762 14450,737C14491,685 14574,697 14599,758C14608,779 14610,889 14608,1161C14605,1577 14605,1577 14537,1605ZM14571,2317C14543,2339 14482,2333 14455,2305C14430,2281 14430,2279 14430,2096L14430,1911L14468,1904C14488,1901 14529,1892 14558,1885L14610,1872L14610,2067C14610,2263 14606,2290 14571,2317ZM15270,1596L15270,2580L15720,2580L15720,698L15772,705C15817,711 15881,730 15943,755C15959,762 15960,751 15960,611L15960,460L15589,460C15239,460 15218,461 15225,478C15229,487 15241,521 15251,553C15269,609 15270,661 15270,1596ZM18639,2513L18612,2580L18934,2580C19111,2580 19294,2575 19340,2569C19510,2548 19650,2500 19713,2442L19740,2416L19740,619L19713,593C19654,539 19549,500 19395,475C19328,464 19215,460 18958,460L18611,460L18630,503C18670,594 18671,632 18668,1555L18665,2445L18639,2513ZM19267,2306C19244,2326 19228,2330 19179,2330L19120,2330L19120,700L19166,700C19234,700 19278,724 19290,769C19298,793 19300,1046 19298,1543L19295,2282L19267,2306ZM281.272,2579.19C839.782,2579.19 1309.71,2594.08 1435.64,2386.71C1365.09,2278.71 1370.7,1926.51 1377.73,1840.46C1384.76,1754.42 1075.5,1915.14 1022.08,1928.13C968.664,1941.12 944.77,1991.45 944.77,2074.24C944.77,2157.04 943.673,2178.18 943.363,2236.64C943.057,2295.09 867.454,2308.07 853.398,2308.07C839.342,2308.07 756.404,2299.95 756.404,2226.89C756.404,2153.84 757.807,1746.92 757.807,1746.92C757.807,1746.92 1324.19,1598.58 1435.37,1569.96C1411.83,1513.72 1371.55,1459.73 1273.71,1420.6C1186.17,1385.59 1012.63,1357.83 756.404,1441.71C756.404,1302.81 759.215,845.184 759.215,807.841C759.215,770.503 784.516,723.418 856.208,723.418C927.899,723.418 946.173,781.865 946.173,806.215C946.173,830.571 944.77,1180.42 944.77,1180.42C944.77,1180.42 1279.32,1177.41 1306.04,1177.17C1332.76,1176.93 1377.73,1144.71 1377.73,1068.4L1377.73,884.147C1377.73,843.558 1401.42,690.473 1435.37,651.988C1386.54,558.082 1293.08,511.828 1114.45,474.594C962.109,442.838 409.08,451.827 276.483,451.827C301.034,479.319 316.412,708.81 316.412,937.718C316.412,1166.63 320.63,1523.8 320.63,1560.22C302.666,1562.06 284.977,1565.76 264.909,1569.46C281.69,1599.75 308.489,1631.65 319.735,1644.64C319.735,1695.03 311.466,2388.53 281.272,2579.19ZM1568.31,2579.19C2126.82,2579.19 2596.75,2594.08 2722.69,2386.71C2652.13,2278.71 2657.74,1926.51 2664.77,1840.46C2671.8,1754.42 2362.54,1915.14 2309.12,1928.13C2255.71,1941.12 2231.81,1991.45 2231.81,2074.24C2231.81,2157.04 2230.71,2178.18 2230.4,2236.64C2230.1,2295.09 2154.49,2308.07 2140.44,2308.07C2126.38,2308.07 2043.45,2299.95 2043.45,2226.89C2043.45,2153.84 2044.85,1746.92 2044.85,1746.92C2044.85,1746.92 2611.23,1598.58 2722.41,1569.96C2698.87,1513.72 2658.59,1459.73 2560.75,1420.6C2473.21,1385.59 2299.68,1357.83 2043.45,1441.71C2043.45,1302.81 2046.26,845.184 2046.26,807.841C2046.26,770.503 2071.56,723.418 2143.25,723.418C2214.94,723.418 2233.21,781.865 2233.21,806.215C2233.21,830.571 2231.81,1180.42 2231.81,1180.42C2231.81,1180.42 2566.36,1177.41 2593.08,1177.17C2619.8,1176.93 2664.77,1144.71 2664.77,1068.4L2664.77,884.147C2664.77,843.558 2688.46,690.473 2722.41,651.988C2673.58,558.082 2580.12,511.828 2401.49,474.594C2249.15,442.838 1696.12,451.827 1563.53,451.827C1588.08,479.319 1603.45,708.81 1603.45,937.718C1603.45,1166.63 1607.67,1523.8 1607.67,1560.22C1589.71,1562.06 1572.02,1565.76 1551.95,1569.46C1568.73,1599.75 1595.53,1631.65 1606.78,1644.64C1606.78,1695.03 1598.51,2388.53 1568.31,2579.19ZM4142.58,2579.19C4701.09,2579.19 5171.02,2594.08 5296.96,2386.71C5226.4,2278.71 5232.01,1926.51 5239.04,1840.46C5246.07,1754.42 4936.81,1915.14 4883.39,1928.13C4829.98,1941.12 4806.08,1991.45 4806.08,2074.24C4806.08,2157.04 4804.98,2178.18 4804.67,2236.64C4804.37,2295.09 4728.77,2308.07 4714.71,2308.07C4700.65,2308.07 4617.72,2299.95 4617.72,2226.89C4617.72,2153.84 4619.12,1746.92 4619.12,1746.92C4619.12,1746.92 5185.5,1598.58 5296.68,1569.96C5273.14,1513.72 5232.86,1459.73 5135.02,1420.6C5047.48,1385.59 4873.95,1357.83 4617.72,1441.71C4617.72,1302.81 4620.53,845.184 4620.53,807.841C4620.53,770.503 4645.83,723.418 4717.52,723.418C4789.21,723.418 4807.48,781.865 4807.48,806.215C4807.48,830.571 4806.08,1180.42 4806.08,1180.42C4806.08,1180.42 5140.63,1177.41 5167.35,1177.17C5194.07,1176.93 5239.04,1144.71 5239.04,1068.4L5239.04,884.147C5239.04,843.558 5262.73,690.473 5296.68,651.988C5247.85,558.082 5154.39,511.828 4975.76,474.594C4823.42,442.838 4270.39,451.827 4137.79,451.827C4162.35,479.319 4177.72,708.81 4177.72,937.718C4177.72,1166.63 4181.94,1523.8 4181.94,1560.22C4163.98,1562.06 4146.29,1565.76 4126.22,1569.46C4143,1599.75 4169.8,1631.65 4181.05,1644.64C4181.05,1695.03 4172.78,2388.53 4142.58,2579.19ZM5443.51,2579.19C6002.02,2579.19 6471.95,2594.08 6597.88,2386.71C6527.33,2278.71 6532.94,1926.51 6539.97,1840.46C6547,1754.42 6237.74,1915.14 6184.32,1928.13C6130.9,1941.12 6107.01,1991.45 6107.01,2074.24C6107.01,2157.04 6105.91,2178.18 6105.6,2236.64C6105.3,2295.09 6029.69,2308.07 6015.64,2308.07C6001.58,2308.07 5918.64,2299.95 5918.64,2226.89C5918.64,2153.84 5920.05,1746.92 5920.05,1746.92C5920.05,1746.92 6486.43,1598.58 6597.61,1569.96C6574.07,1513.72 6533.79,1459.73 6435.95,1420.6C6348.41,1385.59 6174.87,1357.83 5918.64,1441.71C5918.64,1302.81 5921.45,845.184 5921.45,807.841C5921.45,770.503 5946.76,723.418 6018.45,723.418C6090.14,723.418 6108.41,781.865 6108.41,806.215C6108.41,830.571 6107.01,1180.42 6107.01,1180.42C6107.01,1180.42 6441.56,1177.41 6468.28,1177.17C6494.99,1176.93 6539.97,1144.71 6539.97,1068.4L6539.97,884.147C6539.97,843.558 6563.66,690.473 6597.61,651.988C6548.78,558.082 6455.31,511.828 6276.69,474.594C6124.35,442.838 5571.32,451.827 5438.72,451.827C5463.27,479.319 5478.65,708.81 5478.65,937.718C5478.65,1166.63 5482.87,1523.8 5482.87,1560.22C5464.9,1562.06 5447.22,1565.76 5427.15,1569.46C5443.93,1599.75 5470.73,1631.65 5481.97,1644.64C5481.97,1695.03 5473.7,2388.53 5443.51,2579.19ZM3139.63,523.832C3001.44,603.546 2852.53,785.905 2852.53,797.25C2852.53,818.289 2903.05,835.546 2903.05,956.704C2903.05,1062.13 2898.9,2373.91 2898.65,2422.27C2898.33,2483.21 2867.45,2560.2 2848.13,2580.41C2828.35,2601.12 3337.94,2587.09 3337.94,2558.45C3337.94,2503.54 3335.4,850.726 3335.4,795.815C3335.4,740.904 3415.78,605.326 3430.26,605.326C3444.74,605.326 3529.14,728.98 3529.14,795.815C3529.14,862.646 3526.83,2511.42 3526.83,2556.25C3526.83,2583.91 4047.88,2601.68 4018.83,2578.22C3986.49,2552.09 3966.12,2492.55 3966.12,2428.86C3966.12,2365.16 3964.91,1037.97 3964.91,956.704C3964.91,837.489 4016.63,811.787 4016.63,795.815C4016.63,779.839 3873.58,646.514 3725.57,537.632C3724.88,537.2 3724.21,536.737 3723.54,536.247C3590.37,438.363 3443.39,391.541 3430.26,391.541C3417.14,391.541 3231.14,471.043 3139.63,523.832ZM8098.92,971.992C8097.74,821.737 8097.69,540.136 8132.63,477.325C8060.94,477.325 7696.97,478.822 7619.65,478.822C7663.75,540.469 7673.36,827.434 7675.44,970.229C7765.21,923.794 7851.36,894.562 7887.39,894.562C7926.15,894.562 8003.57,918.56 8098.92,971.992ZM7599.37,1093.83C7461.18,1173.55 7312.27,1355.91 7312.27,1367.25C7312.27,1388.29 7362.78,1405.55 7362.78,1526.7C7362.78,1632.13 7358.64,2373.91 7358.39,2422.27C7358.07,2483.21 7327.19,2560.2 7307.87,2580.41C7288.08,2601.12 7797.68,2587.09 7797.68,2558.45C7797.68,2503.54 7795.14,1420.73 7795.14,1365.82C7795.14,1310.9 7875.52,1175.33 7890,1175.33C7904.48,1175.33 7988.88,1298.99 7988.88,1365.82C7988.88,1432.65 7986.57,2511.42 7986.57,2556.25C7986.57,2583.91 8507.61,2601.68 8478.57,2578.22C8446.23,2552.09 8425.86,2492.55 8425.86,2428.86C8425.86,2365.16 8424.65,1607.97 8424.65,1526.7C8424.65,1407.49 8476.37,1381.79 8476.37,1365.82C8476.37,1349.84 8333.31,1216.52 8185.31,1107.63C8184.62,1107.2 8183.95,1106.74 8183.28,1106.25C8050.11,1008.36 7903.12,961.547 7890,961.547C7876.88,961.547 7690.88,1041.04 7599.37,1093.83Z"/>
    </g>
</svg>
