<?xml version="1.0" encoding="UTF-8" standalone="no"?>
<!DOCTYPE svg PUBLIC "-//W3C//DTD SVG 1.1//EN" "http://www.w3.org/Graphics/SVG/1.1/DTD/svg11.dtd">
<svg width="100%" height="100%" viewBox="0 0 2033 342" version="1.1" xmlns="http://www.w3.org/2000/svg" xmlns:xlink="http://www.w3.org/1999/xlink" xml:space="preserve" xmlns:serif="http://www.serif.com/" style="fill-rule:evenodd;clip-rule:evenodd;stroke-linejoin:round;stroke-miterlimit:2;">
    <g id="Artboard1" transform="matrix(1.05852,0,0,0.316052,0,0)">
        <rect x="0" y="0" width="1920" height="1080" style="fill:none;"/>
        <g>
            <g transform="matrix(0.0944718,0,0,-0.316403,15.1761,1015.14)">
                <path d="M8985,2599C8887,2586 8771,2556 8708,2526C8642,2494 8596,2453 8604,2431C8607,2422 8619,2388 8632,2355L8655,2295L8655,745L8626,667C8593,575 8594,572 8688,522C8808,458 8965,430 9196,430C9412,430 9584,461 9699,520C9751,546 9792,590 9784,609C9780,618 9766,655 9753,693L9729,760L9732,1538L9735,2315L9762,2380L9789,2444L9767,2469C9718,2522 9554,2579 9390,2600C9299,2611 9081,2611 8985,2599ZM9255,2335L9280,2311L9280,722L9249,696C9214,666 9191,664 9150,685C9130,695 9117,713 9110,738C9102,764 9100,1010 9102,1542L9105,2308L9129,2334C9162,2369 9221,2370 9255,2335Z" style="fill-FFFFFF;"/>
            </g>
            <g transform="matrix(0.0944718,0,0,-0.316403,15.1761,1015.14)">
                <path d="M16415,2599C16257,2579 16108,2525 16055,2470L16028,2442L16056,2373L16085,2305L16085,735L16061,675C16027,587 16028,580 16083,543C16193,469 16323,440 16572,433C16833,426 17002,452 17133,523C17220,569 17225,581 17192,660L17165,725L17162,1485C17159,2277 17160,2301 17201,2398L17221,2443L17198,2468C17144,2525 16992,2578 16820,2599C16721,2612 16515,2611 16415,2599ZM16685,2335L16710,2311L16710,722L16679,696C16662,682 16640,670 16629,670C16601,670 16554,696 16546,715C16543,724 16540,1089 16540,1525L16540,2319L16566,2339C16603,2368 16655,2366 16685,2335Z" style="fill-rule:nonzero;"/>
            </g>
            <g transform="matrix(0.0944718,0,0,-0.316403,15.1761,1015.14)">
                <path d="M17705,2599C17547,2579 17398,2525 17345,2470L17318,2442L17346,2373L17375,2305L17375,735L17351,675C17317,587 17318,580 17373,543C17483,469 17613,440 17862,433C18123,426 18292,452 18423,523C18510,569 18515,581 18482,660L18455,725L18452,1485C18449,2277 18450,2301 18491,2398L18511,2443L18488,2468C18434,2525 18282,2578 18110,2599C18011,2612 17805,2611 17705,2599ZM17975,2335L18000,2311L18000,722L17969,696C17952,682 17930,670 17919,670C17891,670 17844,696 17836,715C17833,724 17830,1089 17830,1525L17830,2319L17856,2339C17893,2368 17945,2366 17975,2335Z" style="fill-rule:nonzero;"/>
            </g>
            <g transform="matrix(0.0944718,0,0,-0.316403,15.1761,1015.14)">
                <path d="M9948,1658C9945,654 9949,729 9896,608C9877,565 10018,489 10180,453C10248,439 10308,435 10485,435C10717,435 10806,446 10925,491C10985,513 11066,564 11073,584C11076,592 11066,626 11052,661L11025,725L11022,1653L11020,2580L10570,2580L10570,1650C10570,737 10570,720 10550,700C10523,673 10485,665 10449,680C10387,706 10390,661 10390,1665L10390,2580L9951,2580L9948,1658Z" style="fill-rule:nonzero;"/>
            </g>
            <g transform="matrix(0.0944718,0,0,-0.316403,15.1761,1015.14)">
                <path d="M11185,2563C11189,2553 11202,2523 11214,2495C11235,2445 11235,2439 11238,1453L11241,460L11680,460L11682,1041L11685,1622L12005,460L12269,460C12516,460 12532,461 12525,478C12471,619 12475,521 12472,1598L12469,2580L12030,2580L12028,2006L12025,1433L11880,1959C11801,2248 11730,2506 11722,2533L11708,2580L11443,2580C11194,2580 11178,2579 11185,2563Z" style="fill-rule:nonzero;"/>
            </g>
            <g transform="matrix(0.0944718,0,0,-0.316403,15.1761,1015.14)">
                <path d="M13060,2573C12902,2556 12733,2503 12671,2451L12636,2423L12690,2261L12690,749L12664,669L12637,589L12660,564C12693,530 12776,493 12889,462C12980,437 12997,436 13230,436C13463,436 13480,437 13571,462C13685,493 13767,530 13800,565C13822,589 13823,593 13811,623C13764,739 13765,727 13765,1115C13765,1512 13762,1485 13815,1623C13822,1639 13805,1640 13540,1640C13275,1640 13258,1639 13265,1623C13317,1495 13315,1521 13318,1114L13321,732L13297,704C13262,664 13198,663 13164,703L13140,731L13140,2281L13165,2305C13183,2324 13200,2330 13230,2330C13260,2330 13277,2324 13295,2305C13320,2281 13320,2279 13320,2093L13320,1905L13528,1856C13642,1829 13741,1805 13748,1803C13757,1799 13760,1880 13760,2189L13760,2580L13428,2578C13245,2578 13079,2575 13060,2573Z" style="fill-rule:nonzero;"/>
            </g>
            <g transform="matrix(0.0944718,0,0,-0.316403,15.1761,1015.14)">
                <path d="M13980,2582L13980,1829L13953,1794C13931,1765 13929,1757 13941,1749C13949,1744 13961,1740 13968,1740C13977,1740 13980,1605 13980,1100L13980,460L14328,460C14685,460 14782,468 14910,506C14981,527 15070,572 15095,599C15112,619 15113,625 15101,653C15057,763 15056,765 15052,1095L15049,1415L15022,1443C14989,1477 14867,1555 14820,1572L14785,1584L14867,1601C14957,1620 15021,1649 15063,1689C15112,1734 15114,1743 15083,1828C15056,1902 15055,1912 15055,2085C15056,2256 15057,2268 15083,2336C15098,2376 15108,2415 15104,2423C15089,2464 14965,2521 14825,2552C14746,2570 14690,2573 14358,2577L13980,2582ZM14571,2317C14606,2290 14610,2263 14610,2067L14610,1872L14558,1885C14529,1892 14488,1901 14468,1904L14430,1911L14430,2096C14430,2279 14430,2281 14455,2305C14482,2333 14543,2339 14571,2317ZM14537,1605C14605,1577 14605,1577 14608,1161C14610,889 14608,779 14599,758C14574,697 14491,685 14450,737C14431,762 14430,777 14430,1197L14430,1631L14468,1624C14488,1620 14519,1612 14537,1605Z" style="fill-rule:nonzero;"/>
            </g>
            <g transform="matrix(0.0944718,0,0,-0.316403,15.1761,1015.14)">
                <path d="M15270,1596C15270,661 15269,609 15251,553C15241,521 15229,487 15225,478C15218,461 15239,460 15589,460L15960,460L15960,611C15960,751 15959,762 15943,755C15881,730 15817,711 15772,705L15720,698L15720,2580L15270,2580L15270,1596Z" style="fill-rule:nonzero;"/>
            </g>
            <g transform="matrix(0.0944718,0,0,-0.316403,15.1761,1015.14)">
                <path d="M18639,2513L18665,2445L18668,1555C18671,632 18670,594 18630,503L18611,460L18958,460C19215,460 19328,464 19395,475C19549,500 19654,539 19713,593L19740,619L19740,2416L19713,2442C19650,2500 19510,2548 19340,2569C19294,2575 19111,2580 18934,2580L18612,2580L18639,2513ZM19267,2306L19295,2282L19298,1543C19300,1046 19298,793 19290,769C19278,724 19234,700 19166,700L19120,700L19120,2330L19179,2330C19228,2330 19244,2326 19267,2306Z" style="fill-rule:nonzero;"/>
            </g>
        </g>
        <g transform="matrix(0.424789,0,0,1.64309,-133.294,-301.809)">
            <path d="M412.069,304.844C536.28,304.844 640.791,301.977 668.798,341.909C653.107,362.705 654.355,430.528 655.918,447.097C657.481,463.667 588.703,432.717 576.823,430.216C564.943,427.715 559.629,418.023 559.629,402.079C559.629,386.135 559.385,382.064 559.316,370.808C559.248,359.552 542.434,357.053 539.308,357.053C536.182,357.053 517.737,358.616 517.737,372.684C517.737,386.752 518.049,465.11 518.049,465.11C518.049,465.11 644.011,493.676 668.736,499.187C663.501,510.016 654.544,520.413 632.784,527.949C613.315,534.691 574.722,540.035 517.737,523.884C517.737,550.631 518.362,638.754 518.362,645.945C518.362,653.135 523.989,662.202 539.933,662.202C555.877,662.202 559.941,650.947 559.941,646.258C559.941,641.568 559.629,574.199 559.629,574.199C559.629,574.199 634.032,574.778 639.974,574.824C645.916,574.87 655.918,581.076 655.918,595.77L655.918,631.251C655.918,639.067 661.187,668.546 668.736,675.957C657.877,694.04 637.091,702.947 597.365,710.117C563.485,716.232 440.493,714.501 411.004,714.501C416.464,709.207 419.884,665.015 419.884,620.935C419.884,576.854 420.822,508.076 420.822,501.063C416.827,500.708 412.893,499.996 408.43,499.284C412.162,493.45 418.122,487.307 420.623,484.806C420.623,475.102 418.784,341.559 412.069,304.844Z"/>
        </g>
        <g transform="matrix(0.424789,0,0,1.64309,-11.7049,-301.809)">
            <path d="M412.069,304.844C536.28,304.844 640.791,301.977 668.798,341.909C653.107,362.705 654.355,430.528 655.918,447.097C657.481,463.667 588.703,432.717 576.823,430.216C564.943,427.715 559.629,418.023 559.629,402.079C559.629,386.135 559.385,382.064 559.316,370.808C559.248,359.552 542.434,357.053 539.308,357.053C536.182,357.053 517.737,358.616 517.737,372.684C517.737,386.752 518.049,465.11 518.049,465.11C518.049,465.11 644.011,493.676 668.736,499.187C663.501,510.016 654.544,520.413 632.784,527.949C613.315,534.691 574.722,540.035 517.737,523.884C517.737,550.631 518.362,638.754 518.362,645.945C518.362,653.135 523.989,662.202 539.933,662.202C555.877,662.202 559.941,650.947 559.941,646.258C559.941,641.568 559.629,574.199 559.629,574.199C559.629,574.199 634.032,574.778 639.974,574.824C645.916,574.87 655.918,581.076 655.918,595.77L655.918,631.251C655.918,639.067 661.187,668.546 668.736,675.957C657.877,694.04 637.091,702.947 597.365,710.117C563.485,716.232 440.493,714.501 411.004,714.501C416.464,709.207 419.884,665.015 419.884,620.935C419.884,576.854 420.822,508.076 420.822,501.063C416.827,500.708 412.893,499.996 408.43,499.284C412.162,493.45 418.122,487.307 420.623,484.806C420.623,475.102 418.784,341.559 412.069,304.844Z"/>
        </g>
        <g transform="matrix(0.424789,0,0,1.64309,231.491,-301.809)">
            <path d="M412.069,304.844C536.28,304.844 640.791,301.977 668.798,341.909C653.107,362.705 654.355,430.528 655.918,447.097C657.481,463.667 588.703,432.717 576.823,430.216C564.943,427.715 559.629,418.023 559.629,402.079C559.629,386.135 559.385,382.064 559.316,370.808C559.248,359.552 542.434,357.053 539.308,357.053C536.182,357.053 517.737,358.616 517.737,372.684C517.737,386.752 518.049,465.11 518.049,465.11C518.049,465.11 644.011,493.676 668.736,499.187C663.501,510.016 654.544,520.413 632.784,527.949C613.315,534.691 574.722,540.035 517.737,523.884C517.737,550.631 518.362,638.754 518.362,645.945C518.362,653.135 523.989,662.202 539.933,662.202C555.877,662.202 559.941,650.947 559.941,646.258C559.941,641.568 559.629,574.199 559.629,574.199C559.629,574.199 634.032,574.778 639.974,574.824C645.916,574.87 655.918,581.076 655.918,595.77L655.918,631.251C655.918,639.067 661.187,668.546 668.736,675.957C657.877,694.04 637.091,702.947 597.365,710.117C563.485,716.232 440.493,714.501 411.004,714.501C416.464,709.207 419.884,665.015 419.884,620.935C419.884,576.854 420.822,508.076 420.822,501.063C416.827,500.708 412.893,499.996 408.43,499.284C412.162,493.45 418.122,487.307 420.623,484.806C420.623,475.102 418.784,341.559 412.069,304.844Z"/>
        </g>
        <g transform="matrix(0.424789,0,0,1.64309,354.392,-301.809)">
            <path d="M412.069,304.844C536.28,304.844 640.791,301.977 668.798,341.909C653.107,362.705 654.355,430.528 655.918,447.097C657.481,463.667 588.703,432.717 576.823,430.216C564.943,427.715 559.629,418.023 559.629,402.079C559.629,386.135 559.385,382.064 559.316,370.808C559.248,359.552 542.434,357.053 539.308,357.053C536.182,357.053 517.737,358.616 517.737,372.684C517.737,386.752 518.049,465.11 518.049,465.11C518.049,465.11 644.011,493.676 668.736,499.187C663.501,510.016 654.544,520.413 632.784,527.949C613.315,534.691 574.722,540.035 517.737,523.884C517.737,550.631 518.362,638.754 518.362,645.945C518.362,653.135 523.989,662.202 539.933,662.202C555.877,662.202 559.941,650.947 559.941,646.258C559.941,641.568 559.629,574.199 559.629,574.199C559.629,574.199 634.032,574.778 639.974,574.824C645.916,574.87 655.918,581.076 655.918,595.77L655.918,631.251C655.918,639.067 661.187,668.546 668.736,675.957C657.877,694.04 637.091,702.947 597.365,710.117C563.485,716.232 440.493,714.501 411.004,714.501C416.464,709.207 419.884,665.015 419.884,620.935C419.884,576.854 420.822,508.076 420.822,501.063C416.827,500.708 412.893,499.996 408.43,499.284C412.162,493.45 418.122,487.307 420.623,484.806C420.623,475.102 418.784,341.559 412.069,304.844Z"/>
        </g>
        <g transform="matrix(0.424789,0,0,1.4227,-1.16961,-234.634)">
            <path d="M736.724,761.954C705.99,744.226 672.873,703.67 672.873,701.147C672.873,696.468 684.108,692.63 684.108,665.685C684.108,642.238 683.187,350.505 683.131,339.749C683.06,326.195 676.193,309.074 671.896,304.578C667.495,299.974 780.827,303.094 780.827,309.463C780.827,321.675 780.262,689.254 780.262,701.466C780.262,713.678 798.139,743.83 801.359,743.83C804.58,743.83 823.349,716.33 823.349,701.466C823.349,686.603 822.836,319.922 822.836,309.952C822.836,303.8 938.715,299.848 932.256,305.067C925.064,310.878 920.532,324.118 920.532,338.284C920.532,352.449 920.264,647.612 920.264,665.685C920.264,692.198 931.767,697.914 931.767,701.466C931.767,705.019 899.951,734.67 867.036,758.885C866.882,758.981 866.732,759.084 866.583,759.193C836.967,780.962 804.278,791.375 801.359,791.375C798.441,791.375 757.076,773.694 736.724,761.954Z"/>
        </g>
        <g transform="matrix(0.424789,0,0,1.4227,420.15,-234.634)">
            <path d="M847.823,662.285C847.56,695.701 847.548,758.328 855.319,772.297C839.375,772.297 758.43,771.964 741.235,771.964C751.042,758.254 753.18,694.434 753.642,662.677C773.606,673.004 792.765,679.505 800.778,679.505C809.399,679.505 826.617,674.168 847.823,662.285Z"/>
        </g>
        <g transform="matrix(0.424789,0,0,1.4227,420.15,-234.634)">
            <path d="M736.724,635.188C705.99,617.46 672.873,576.904 672.873,574.381C672.873,569.702 684.108,565.864 684.108,538.919C684.108,515.472 683.187,350.505 683.131,339.749C683.06,326.195 676.193,309.074 671.896,304.578C667.495,299.974 780.827,303.094 780.827,309.463C780.827,321.675 780.262,562.488 780.262,574.7C780.262,586.912 798.139,617.064 801.359,617.064C804.58,617.064 823.349,589.563 823.349,574.7C823.349,559.837 822.836,319.922 822.836,309.952C822.836,303.8 938.715,299.848 932.256,305.067C925.064,310.878 920.532,324.118 920.532,338.284C920.532,352.449 920.264,520.845 920.264,538.919C920.264,565.432 931.767,571.148 931.767,574.7C931.767,578.253 899.951,607.903 867.036,632.119C866.882,632.215 866.732,632.318 866.583,632.426C836.967,654.196 804.278,664.608 801.359,664.608C798.441,664.608 757.076,646.928 736.724,635.188Z"/>
        </g>
    </g>
</svg>
